<?xml version="1.0" encoding="UTF-8" standalone="no"?>
<svg
   xmlns:dc="http://purl.org/dc/elements/1.1/"
   xmlns:cc="http://creativecommons.org/ns#"
   xmlns:rdf="http://www.w3.org/1999/02/22-rdf-syntax-ns#"
   xmlns:svg="http://www.w3.org/2000/svg"
   xmlns="http://www.w3.org/2000/svg"
   id="svg8"
   version="1.1"
   viewBox="0 0 210 297"
   height="297mm"
   width="210mm">
  <defs
     id="defs2">
    <clipPath
       clipPathUnits="userSpaceOnUse"
       id="clipPath52">
      <path
         d="M 11945.7,34014.2 V 10058.1 H 27438.1 V 34014.2 H 11945.7 Z"
         id="path50" />
    </clipPath>
    <clipPath
       clipPathUnits="userSpaceOnUse"
       id="clipPath92">
      <path
         d="m 15766.2,26606.3 -92.7,-1170.3 h -555.8 l -92.6,1170.3 h 741.1 z"
         id="path90" />
    </clipPath>
    <clipPath
       clipPathUnits="userSpaceOnUse"
       id="clipPath120">
      <path
         d="m 15057.4,26544.2 c 49.3,0 627.2,0 676.4,0 327,0 62.3,-326.3 -303,-351.3 -8.7,-1 -32.2,-1.5 -35.2,-1.5 -3,0 -26.5,0.5 -35.2,1.5 -365.3,25 -630,351.3 -303,351.3 z"
         id="path118" />
    </clipPath>
    <clipPath
       clipPathUnits="userSpaceOnUse"
       id="clipPath180">
      <path
         d="m 15766.2,17730.5 -92.7,-1170.4 h -555.8 l -92.6,1170.4 h 741.1 z"
         id="path178" />
    </clipPath>
    <clipPath
       clipPathUnits="userSpaceOnUse"
       id="clipPath208">
      <path
         d="m 15057.4,17668.3 c 49.3,0 627.2,0 676.4,0 327,0 62.3,-326.2 -303,-351.3 -8.7,-0.9 -32.2,-1.5 -35.2,-1.4 -3,-0.1 -26.5,0.5 -35.2,1.4 -365.3,25.1 -630,351.3 -303,351.3 z"
         id="path206" />
    </clipPath>
    <clipPath
       clipPathUnits="userSpaceOnUse"
       id="clipPath276">
      <path
         d="m 23806.7,21996.9 71.5,-1037.4 h 429.3 l 71.5,1037.4 h -572.3 z"
         id="path274" />
    </clipPath>
    <clipPath
       clipPathUnits="userSpaceOnUse"
       id="clipPath348">
      <path
         d="m 23806.7,13121.1 71.5,-1037.4 h 429.3 l 71.5,1037.4 h -572.3 z"
         id="path346" />
    </clipPath>
    <clipPath
       clipPathUnits="userSpaceOnUse"
       id="clipPath424">
      <path
         d="m 23806.7,30872.8 71.5,-1037.4 h 429.3 l 71.5,1037.4 h -572.3 z"
         id="path422" />
    </clipPath>
  </defs>
  <metadata
     id="metadata5">
    <rdf:RDF>
      <cc:Work
         rdf:about="">
        <dc:format>image/svg+xml</dc:format>
        <dc:type
           rdf:resource="http://purl.org/dc/dcmitype/StillImage" />
        <dc:title></dc:title>
      </cc:Work>
    </rdf:RDF>
  </metadata>
  <g
     id="layer1">
    <g
       id="g18"
       transform="matrix(0.35277777,0,0,-0.35277777,-365.8676,1010.6057)">
      <g
         id="g20"
         transform="matrix(0.1,0,0,0.1,-51.428621,951.42864)">
        <g
           id="g26"
           transform="scale(1.84275)">
          <path
             d="m 16012.7,12535.6 c 0,0 287.3,-1026.1 -1352.8,-1427.6 L 9999.96,9967.07 c 0,0 -511.25,-125.19 -653.22,381.73 l -145.38,519.2 c 0,0 -287.34,1026.1 1352.74,1427.7 l 4143.4,1014.4 c 0,0 1027.9,251.7 1313.2,-767.3 l 2,-7.2 v 0"
             style="fill:#ddab89;fill-opacity:1;fill-rule:nonzero;stroke:none"
             id="path28" />
        </g>
        <g
           id="g30"
           transform="scale(1.79209)">
          <path
             d="m 16196.6,9514.02 c 0,0 103.4,-1046.37 -1559.2,-1155.52 L 9913.33,8048.3 c 0,0 -517.83,-34.04 -568.83,482.4 l -52.4,529.94 c 0,0 -103.4,1046.36 1559.2,1155.56 L 15052,10492 c 0,0 1041.2,68.3 1143.8,-970.06 l 0.8,-7.92 v 0"
             style="fill:#ddab89;fill-opacity:1;fill-rule:nonzero;stroke:none"
             id="path32" />
        </g>
        <g
           id="g34"
           transform="scale(1.77166)">
          <path
             d="m 16189.9,7022.92 c 0,0 110.1,-1114.1 -1660.1,-1230.37 l -5029.54,-330.2 c 0,0 -551.97,-36.3 -606.32,514.21 l -55.71,563.65 c 0,0 -110.07,1114.15 1660.17,1230.37 l 4471.9,293.62 c 0,0 1109.6,72.88 1218.9,-1033.72 l 0.7,-7.56 v 0"
             style="fill:#ddab89;fill-opacity:1;fill-rule:nonzero;stroke:none"
             id="path36" />
        </g>
        <g
           id="g38"
           transform="scale(1.55776)">
          <path
             d="m 16193.6,4066.16 c 0,0 -106.5,-1135.54 -1899.3,-907.65 l -5098.6,648.11 c 0,0 -554.06,70.42 -501.94,626.47 l 54.37,579.43 c 0,0 106.44,1135.54 1899.27,907.64 l 4531.8,-576.01 c 0,0 1120.8,-142.45 1015.3,-1267.34 l -0.9,-10.65 v 0"
             style="fill:#ddab89;fill-opacity:1;fill-rule:nonzero;stroke:none"
             id="path40" />
        </g>
        <g
           id="g42"
           transform="scale(2.08676)">
          <path
             d="M 5724.51,16300 V 4819.96 H 13148.6 V 16300 H 5724.51 v 0"
             style="fill:#ededed;fill-opacity:1;fill-rule:nonzero;stroke:none"
             id="path44" />
        </g>
        <g
           id="g46">
          <g
             id="g48"
             clip-path="url(#clipPath52)">
            <g
               id="g54"
               transform="scale(2.08681)">
              <path
                 d="M 6183.03,16300.3 V 4819.85 H 12689.7 V 16300.3 H 6183.03 v 0"
                 style="fill:#ffffff;fill-opacity:1;fill-rule:nonzero;stroke:none"
                 id="path56" />
            </g>
          </g>
        </g>
        <g
           id="g58"
           transform="scale(2.28566)">
          <path
             d="m 5224.44,4391.11 v -883.15 c 0,0 0,-781.09 1295.6,-781.09 h 4186.26 c 0,0 1295.6,-59.2 1295.6,1075.05 v 589.19 z M 12001.9,14872.2 v 292.1 c 0,0 0,1038.3 -1295.6,1038.3 H 6520.04 c 0,0 -1295.6,97.4 -1295.6,-1038.3 v -292.1 h 6777.46 v 0"
             style="fill:#254553;fill-opacity:1;fill-rule:nonzero;stroke:none"
             id="path60" />
        </g>
        <g
           id="g62"
           transform="scale(2.18677)">
          <path
             d="m 8434.04,16300 v -198.2 H 10014.1 V 16300 H 8434.04 v 0"
             style="fill:#ededed;fill-opacity:1;fill-rule:nonzero;stroke:none"
             id="path64" />
        </g>
        <g
           id="g66"
           transform="scale(2.18677)">
          <path
             d="m 7998.01,16300 v -198.2 h 263.72 v 198.2 h -263.72 v 0"
             style="fill:#ededed;fill-opacity:1;fill-rule:nonzero;stroke:none"
             id="path68" />
        </g>
        <g
           id="g70"
           transform="scale(1.73244)">
          <path
             d="m 8886.65,14380.2 c 530.12,0 959.86,429.8 959.86,959.9 0,530.2 -429.74,959.9 -959.86,959.9 -530.12,0 -959.86,-429.7 -959.86,-959.9 0,-530.1 429.74,-959.9 959.86,-959.9 v 0"
             style="fill:#ededed;fill-opacity:1;fill-rule:nonzero;stroke:none"
             id="path72" />
        </g>
        <g
           id="g74"
           transform="scale(1.67246)">
          <path
             d="m 9596.76,16015.6 c -44.9,18.2 -57.22,92.5 -27.5,166 29.71,73.5 90.16,118.4 135.07,100.3 44.9,-18.1 57.16,-92.5 27.5,-166 -29.71,-73.5 -90.17,-118.4 -135.07,-100.3 v 0"
             style="fill:#eaa182;fill-opacity:1;fill-rule:nonzero;stroke:none"
             id="path76" />
        </g>
        <g
           id="g78"
           transform="scale(1.67246)">
          <path
             d="m 8813.96,16015.6 c 44.91,18.2 57.22,92.5 27.51,166 -29.72,73.5 -90.17,118.4 -135.07,100.3 -44.85,-18.1 -57.17,-92.5 -27.51,-166 29.72,-73.5 90.23,-118.4 135.07,-100.3 v 0"
             style="fill:#eaa182;fill-opacity:1;fill-rule:nonzero;stroke:none"
             id="path80" />
        </g>
        <g
           id="g82"
           transform="scale(1.63229)">
          <path
             d="m 9658.95,16300 -56.79,-717 h -340.5 l -56.73,717 h 454.02 v 0"
             style="fill:#fabf97;fill-opacity:1;fill-rule:nonzero;stroke:none"
             id="path84" />
        </g>
        <g
           id="g86">
          <g
             id="g88"
             clip-path="url(#clipPath92)">
            <g
               id="g94"
               transform="scale(1.63233)">
              <path
                 d="m 9431.67,15823.8 c -271.64,0 -567.54,405.7 -567.54,868.9 0,463.1 -166.45,838.6 567.54,838.6 733.93,0 567.53,-375.5 567.53,-838.6 0,-463.2 -295.9,-868.9 -567.53,-868.9 v 0"
                 style="fill:#eaa182;fill-opacity:1;fill-rule:nonzero;stroke:none"
                 id="path96" />
            </g>
          </g>
        </g>
        <g
           id="g98"
           transform="scale(1.72621)">
          <path
             d="m 8918.74,15031.2 c -82.44,0 -308.08,107.1 -392.31,221.1 -57.47,77.8 -31.28,128.2 -31.28,270.2 0,350.4 -131.68,777.5 423.59,777.5 555.26,0 423.58,-427.1 423.58,-777.5 0,-144.4 24.97,-193.2 -34.17,-271.2 -84.29,-111.3 -306.98,-220.1 -389.41,-220.1 v 0"
             style="fill:#fabf97;fill-opacity:1;fill-rule:nonzero;stroke:none"
             id="path100" />
        </g>
        <g
           id="g102"
           transform="scale(1.67192)">
          <path
             d="m 8999.77,16204.9 c 45.46,-3.2 88.64,-35.6 92.47,6.4 4.49,48.4 -40.49,80.4 -85.83,85.1 -35.29,3.6 -85.71,-33.2 -84.03,-75.4 1.85,-47 31.88,-12.9 77.39,-16.1 v 0"
             style="fill:#284354;fill-opacity:1;fill-rule:nonzero;stroke:none"
             id="path104" />
        </g>
        <g
           id="g106"
           transform="scale(1.67192)">
          <path
             d="m 9416.96,16204.9 c -45.52,-3.2 -88.64,-35.6 -92.53,6.4 -4.49,48.4 40.49,80.4 85.83,85.1 35.29,3.6 85.71,-33.2 84.09,-75.4 -1.85,-47 -31.94,-12.9 -77.39,-16.1 v 0"
             style="fill:#284354;fill-opacity:1;fill-rule:nonzero;stroke:none"
             id="path108" />
        </g>
        <g
           id="g110"
           transform="scale(1.62848)">
          <path
             d="m 9246.3,16300 c 30.27,0 385.15,0 415.36,0 200.8,0 38.25,-200.4 -186.07,-215.7 -5.34,-0.6 -19.77,-0.9 -21.61,-0.9 -1.84,0 -16.27,0.3 -21.62,0.9 -224.32,15.3 -386.86,215.7 -186.06,215.7 v 0"
             style="fill:#e26668;fill-opacity:1;fill-rule:nonzero;stroke:none"
             id="path112" />
        </g>
        <g
           id="g114">
          <g
             id="g116"
             clip-path="url(#clipPath120)">
            <g
               id="g122"
               transform="scale(1.62853)">
              <path
                 d="m 9633.73,16366.4 c 0,0 48.27,0 48.27,-48.2 v -24.2 c 0,0 0,-48.2 -48.27,-48.2 h -360.08 c 0,0 -48.26,0 -48.26,48.2 v 24.2 c 0,0 0,48.2 48.26,48.2 h 360.08 v 0"
                 style="fill:#ffffff;fill-opacity:1;fill-rule:nonzero;stroke:none"
                 id="path124" />
            </g>
            <g
               id="g126"
               transform="scale(1.62179)">
              <path
                 d="m 9284.43,16082.5 c 30.39,0 386.73,0 417.06,0 201.63,0 38.42,201.2 -186.83,216.6 -5.36,0.6 -19.85,0.9 -21.7,0.9 -1.85,0 -16.34,-0.3 -21.7,-0.9 -225.25,-15.4 -388.46,-216.6 -186.83,-216.6 v 0"
                 style="fill:#fc9493;fill-opacity:1;fill-rule:nonzero;stroke:none"
                 id="path128" />
            </g>
            <g
               id="g130"
               transform="scale(1.61183)">
              <path
                 d="m 9684.24,16300 c 0,0 35.55,0 35.55,-35.6 v -17.8 c 0,0 0,-35.5 -35.55,-35.5 h -265.22 c 0,0 -35.55,0 -35.55,35.5 v 17.8 c 0,0 0,35.6 35.55,35.6 h 265.22 v 0"
                 style="fill:#ffffff;fill-opacity:1;fill-rule:nonzero;stroke:none"
                 id="path132" />
            </g>
          </g>
        </g>
        <g
           id="g134"
           transform="scale(1.75056)">
          <path
             d="m 9298.03,16076.4 c -3.03,24.3 -27.88,20.6 -52.38,19.1 -76.49,-4.8 -95.17,21 -251.29,112.9 -155.55,91.6 -314.76,55 -420.84,-23.8 -488.07,-112.6 -202.22,-775.1 -202.22,-775.1 0,0 -1.77,348.7 149.15,454.7 252.78,-172.3 511.04,-181.7 658.08,-79.2 56.72,-132.3 38.15,-375.5 38.15,-375.5 0,0 97.63,246 44.33,463.6 32.68,55.3 47.02,123.8 37.02,203.3 v 0"
             style="fill:#416170;fill-opacity:1;fill-rule:nonzero;stroke:none"
             id="path136" />
        </g>
        <g
           id="g138"
           transform="scale(1.58052)">
          <path
             d="m 10503,15752 c -87.5,234.9 -173.7,436.5 -173.7,436.5 0,0 -1.8,3.5 -6.1,4.5 -117.1,84.4 -391.38,107 -391.38,107 v 0 0 0 c 0,-0.1 -12.27,-141 -191.26,-141 -179,0 -191.33,141 -191.33,141 0,0 -275.04,-22.7 -391.9,-107.4 -3.35,-1.2 -4.87,-4.1 -4.87,-4.1 0,0 -86.24,-201.6 -173.74,-436.5 104.08,-38.5 212.52,-69.2 324.51,-91.6 v 0 c 0.25,-0.1 0.51,-0.1 0.76,-0.1 15.31,-3.1 30.75,-5.9 46.19,-8.7 4.36,-0.8 8.73,-1.5 13.09,-2.3 12.91,-2.2 25.82,-4.3 38.85,-6.2 3.36,-0.5 6.77,-1.1 10.13,-1.6 15.05,-2.2 30.11,-4.3 45.23,-6.2 6.01,-0.8 12.02,-1.5 18.04,-2.2 9.93,-1.2 19.86,-2.3 29.86,-3.3 6.64,-0.7 13.29,-1.5 19.93,-2.1 13.86,-1.3 27.78,-2.5 41.76,-3.6 v 0 c 57.32,-4.4 115.21,-6.8 173.8,-6.8 58.34,0 116.04,2.4 173.11,6.7 v 0 c 14.05,1.1 28.03,2.4 42.01,3.7 6.65,0.6 13.23,1.3 19.8,2 10.07,1.1 20.06,2.2 30.01,3.4 6,0.7 11.9,1.4 17.8,2.1 15.2,1.9 30.3,3.9 45.3,6.2 3.4,0.5 6.6,1 10,1.5 13.1,2.1 26.2,4.1 39.2,6.4 4.2,0.7 8.4,1.4 12.6,2.2 128.6,22.7 252.9,56.4 371.4,100.1 0.3,0.2 0.6,0.3 0.9,0.4 v 0"
             style="fill:#688da7;fill-opacity:1;fill-rule:nonzero;stroke:none"
             id="path140" />
        </g>
        <g
           id="g142"
           transform="scale(1.71494)">
          <path
             d="m 15017.1,15157.8 v 677.8 c 0,0 0,464.4 -418,464.4 h -3498.2 -28 -882.3 l 465.3,-429.2 c -0.6,-11.5 -0.9,-23.1 -0.9,-35.2 v -677.8 c 0,0 0,-464.4 417.9,-464.4 h 3526.2 c 0,0 418,0 418,464.4 v 0"
             style="fill:#6dcaf3;fill-opacity:1;fill-rule:nonzero;stroke:none"
             id="path144" />
        </g>
        <g
           id="g146"
           transform="scale(1.66752)">
          <path
             d="m 11360.8,16300 v -106.1 h 3685.6 v 106.1 h -3685.6 v 0"
             style="fill:#ffffff;fill-opacity:1;fill-rule:nonzero;stroke:none"
             id="path148" />
        </g>
        <g
           id="g150"
           transform="scale(1.63585)">
          <path
             d="m 11580.8,16300 v -108.1 h 3756.9 v 108.1 h -3756.9 v 0"
             style="fill:#ffffff;fill-opacity:1;fill-rule:nonzero;stroke:none"
             id="path152" />
        </g>
        <g
           id="g154"
           transform="scale(1.60418)">
          <path
             d="m 11809.4,16300 v -110.3 h 2079.5 v 110.3 h -2079.5 v 0"
             style="fill:#ffffff;fill-opacity:1;fill-rule:nonzero;stroke:none"
             id="path156" />
        </g>
        <g
           id="g158"
           transform="scale(1.18791)">
          <path
             d="m 12960.3,13500.3 c 773.1,0 1399.8,626.7 1399.8,1399.8 0,773.2 -626.7,1399.9 -1399.8,1399.9 -773.2,0 -1399.9,-626.7 -1399.9,-1399.9 0,-773.1 626.7,-1399.8 1399.9,-1399.8 v 0"
             style="fill:#ededed;fill-opacity:1;fill-rule:nonzero;stroke:none"
             id="path160" />
        </g>
        <g
           id="g162"
           transform="scale(1.12793)">
          <path
             d="m 14229.8,15878.3 c -66.6,26.9 -84.9,137.1 -40.8,246.1 44,109 133.7,175.6 200.2,148.6 66.6,-26.8 84.8,-136.9 40.8,-246 -44,-109 -133.7,-175.6 -200.2,-148.7 v 0"
             style="fill:#eaa182;fill-opacity:1;fill-rule:nonzero;stroke:none"
             id="path164" />
        </g>
        <g
           id="g166"
           transform="scale(1.12793)">
          <path
             d="m 13069,15878.3 c 66.6,26.9 84.9,137.1 40.8,246.1 -44,109 -133.7,175.6 -200.3,148.6 -66.4,-26.8 -84.7,-136.9 -40.7,-246 44,-109 133.8,-175.6 200.2,-148.7 v 0"
             style="fill:#eaa182;fill-opacity:1;fill-rule:nonzero;stroke:none"
             id="path168" />
        </g>
        <g
           id="g170"
           transform="scale(1.08776)">
          <path
             d="m 14494.2,16300 -85.2,-1076 h -511 l -85.1,1076 h 681.3 v 0"
             style="fill:#fabf97;fill-opacity:1;fill-rule:nonzero;stroke:none"
             id="path172" />
        </g>
        <g
           id="g174">
          <g
             id="g176"
             clip-path="url(#clipPath180)">
            <g
               id="g182"
               transform="scale(1.08779)">
              <path
                 d="m 14153.1,15585.5 c -407.6,0 -851.7,608.9 -851.7,1303.9 0,694.9 -249.7,1258.4 851.7,1258.4 1101.4,0 851.6,-563.5 851.6,-1258.4 0,-695 -444,-1303.9 -851.6,-1303.9 v 0"
                 style="fill:#eaa182;fill-opacity:1;fill-rule:nonzero;stroke:none"
                 id="path184" />
            </g>
          </g>
        </g>
        <g
           id="g186"
           transform="scale(1.18168)">
          <path
             d="m 13028.6,14446.5 c -120.5,0 -450.1,156.4 -573.1,323 -84,113.6 -45.7,187.2 -45.7,394.7 0,511.9 -192.4,1135.8 618.8,1135.8 811.1,0 618.7,-623.9 618.7,-1135.8 0,-211 36.5,-282.2 -49.9,-396.3 -123.1,-162.4 -448.4,-321.4 -568.8,-321.4 v 0"
             style="fill:#fabf97;fill-opacity:1;fill-rule:nonzero;stroke:none"
             id="path188" />
        </g>
        <g
           id="g190"
           transform="scale(1.12739)">
          <path
             d="m 13346.6,16159 c 67.5,-4.7 131.5,-52.8 137.2,9.4 6.6,71.8 -60.1,119.3 -127.3,126.2 -52.4,5.4 -127.1,-49.3 -124.6,-111.8 2.7,-69.7 47.2,-19.1 114.7,-23.8 v 0"
             style="fill:#284354;fill-opacity:1;fill-rule:nonzero;stroke:none"
             id="path192" />
        </g>
        <g
           id="g194"
           transform="scale(1.12739)">
          <path
             d="m 13965.3,16159 c -67.5,-4.7 -131.4,-52.8 -137.2,9.4 -6.7,71.8 60.1,119.3 127.3,126.2 52.3,5.4 127.1,-49.3 124.7,-111.8 -2.8,-69.7 -47.4,-19.1 -114.8,-23.8 v 0"
             style="fill:#284354;fill-opacity:1;fill-rule:nonzero;stroke:none"
             id="path196" />
        </g>
        <g
           id="g198"
           transform="scale(1.08394)">
          <path
             d="m 13891.3,16300 c 45.5,0 578.6,0 624,0 301.7,0 57.5,-300.9 -279.5,-324.1 -8,-0.8 -29.7,-1.4 -32.5,-1.3 -2.8,-0.1 -24.4,0.5 -32.5,1.3 -337,23.2 -581.2,324.1 -279.5,324.1 v 0"
             style="fill:#e26668;fill-opacity:1;fill-rule:nonzero;stroke:none"
             id="path200" />
        </g>
        <g
           id="g202">
          <g
             id="g204"
             clip-path="url(#clipPath208)">
            <g
               id="g210"
               transform="scale(1.08399)">
              <path
                 d="m 14473.2,16400 c 0,0 72.5,0 72.5,-72.5 v -36.3 c 0,0 0,-72.5 -72.5,-72.5 h -540.9 c 0,0 -72.5,0 -72.5,72.5 v 36.3 c 0,0 0,72.5 72.5,72.5 h 540.9 v 0"
                 style="fill:#ffffff;fill-opacity:1;fill-rule:nonzero;stroke:none"
                 id="path212" />
            </g>
            <g
               id="g214"
               transform="scale(1.07726)">
              <path
                 d="m 13977.5,15972.5 c 45.7,0 582.2,0 627.8,0 303.6,0 57.9,302.8 -281.2,326.1 -8.1,0.8 -29.9,1.4 -32.7,1.3 -2.8,0.1 -24.6,-0.5 -32.7,-1.3 -339.1,-23.3 -584.8,-326.1 -281.2,-326.1 v 0"
                 style="fill:#fc9493;fill-opacity:1;fill-rule:nonzero;stroke:none"
                 id="path216" />
            </g>
            <g
               id="g218"
               transform="scale(1.0673)">
              <path
                 d="m 14625.1,16300 c 0,0 53.7,0 53.7,-53.7 v -26.8 c 0,0 0,-53.7 -53.7,-53.7 h -400.5 c 0,0 -53.7,0 -53.7,53.7 v 26.8 c 0,0 0,53.7 53.7,53.7 h 400.5 v 0"
                 style="fill:#ffffff;fill-opacity:1;fill-rule:nonzero;stroke:none"
                 id="path220" />
            </g>
          </g>
        </g>
        <g
           id="g222"
           transform="scale(1.20603)">
          <path
             d="m 13496.2,15975.4 c -4.4,35.4 -40.5,30 -76.1,27.8 -111,-6.9 -138.1,30.4 -364.7,163.9 -225.8,132.9 -456.9,79.9 -610.9,-34.6 -708.4,-163.4 -293.5,-1125.1 -293.5,-1125.1 0,0 -2.6,506.2 216.5,660 366.9,-250.1 741.8,-263.7 955.2,-114.9 82.3,-192.1 55.4,-545.1 55.4,-545.1 0,0 141.7,357.1 64.3,673 47.5,80.3 68.3,179.7 53.8,295 v 0"
             style="fill:#416170;fill-opacity:1;fill-rule:nonzero;stroke:none"
             id="path224" />
        </g>
        <g
           id="g226"
           transform="scale(1.03599)">
          <path
             d="m 16023.5,15463.9 c -133.5,358.5 -265,665.8 -265,665.8 0,0 -2.8,5.5 -9.3,7 -178.7,128.7 -597.1,163.3 -597.1,163.3 v 0 0 0 c 0,-0.2 -18.7,-215.1 -291.8,-215.1 -273.1,0 -291.9,215.1 -291.9,215.1 0,0 -419.6,-34.7 -597.9,-163.8 -5.1,-2 -7.4,-6.5 -7.4,-6.5 0,0 -131.6,-307.3 -265.1,-665.8 158.8,-58.6 324.3,-105.6 495.1,-139.7 v 0 c 0.4,-0.1 0.8,-0.2 1.2,-0.3 23.3,-4.6 46.9,-9 70.4,-13.1 6.7,-1.3 13.4,-2.3 20,-3.5 19.7,-3.4 39.4,-6.5 59.3,-9.6 5.1,-0.8 10.3,-1.7 15.4,-2.4 23,-3.4 46,-6.5 69.1,-9.4 9.1,-1.3 18.3,-2.3 27.5,-3.4 15.1,-1.8 30.3,-3.5 45.5,-5.1 10.2,-1.1 20.3,-2.1 30.4,-3.1 21.2,-2 42.4,-3.9 63.7,-5.6 v 0.1 c 87.5,-6.8 175.8,-10.3 265.2,-10.3 89,0 177,3.5 264.1,10.2 v -0.1 c 21.4,1.8 42.7,3.6 64.1,5.6 10.1,1 20.2,2 30.2,3.1 15.3,1.6 30.6,3.4 45.8,5.1 9.1,1.2 18.2,2.1 27.2,3.3 23.1,3 46.2,6.1 69.1,9.5 5.1,0.7 10,1.5 15.1,2.3 20,3.1 40,6.3 59.9,9.7 6.4,1.1 12.8,2.2 19.2,3.3 196.2,34.8 385.8,86.2 566.6,152.9 0.5,0.1 1,0.3 1.4,0.5 v 0"
             style="fill:#688da7;fill-opacity:1;fill-rule:nonzero;stroke:none"
             id="path228" />
        </g>
        <g
           id="g230"
           transform="scale(1.57996)">
          <path
             d="m 16300,10834.9 v 735.8 c 0,0 0,504 -453.7,504 h -3797.1 -30.3 -957.8 l 505.1,-465.8 c -0.6,-12.5 -1,-25.2 -1,-38.2 v -735.8 c 0,0 0,-504 453.7,-504 h 3827.4 c 0,0 453.7,0 453.7,504 v 0"
             style="fill:#6dcaf3;fill-opacity:1;fill-rule:nonzero;stroke:none"
             id="path232" />
        </g>
        <g
           id="g234"
           transform="scale(1.53928)">
          <path
             d="m 12307.3,11891.8 v -115 H 16300 v 115 h -3992.7 v 0"
             style="fill:#ffffff;fill-opacity:1;fill-rule:nonzero;stroke:none"
             id="path236" />
        </g>
        <g
           id="g238"
           transform="scale(1.53928)">
          <path
             d="m 12307.3,11556.4 v -115 H 16300 v 115 h -3992.7 v 0"
             style="fill:#ffffff;fill-opacity:1;fill-rule:nonzero;stroke:none"
             id="path240" />
        </g>
        <g
           id="g242"
           transform="scale(1.31124)">
          <path
             d="m 14447.7,13172.5 v -135 H 16300 v 135 h -1852.3 v 0"
             style="fill:#ffffff;fill-opacity:1;fill-rule:nonzero;stroke:none"
             id="path244" />
        </g>
        <g
           id="g246"
           transform="scale(1.57996)">
          <path
             d="m 15247.5,12959.2 c 581.3,0 1052.5,471.2 1052.5,1052.5 0,581.2 -471.2,1052.5 -1052.5,1052.5 -581.3,0 -1052.5,-471.3 -1052.5,-1052.5 0,-581.3 471.2,-1052.5 1052.5,-1052.5 v 0"
             style="fill:#ededed;fill-opacity:1;fill-rule:nonzero;stroke:none"
             id="path248" />
        </g>
        <g
           id="g250"
           transform="scale(1.53626)">
          <path
             d="m 15312.1,15085.2 c 0,0 -249.6,0 -249.6,-249.7 v -519.1 c 0,0 0,-249.7 249.6,-249.7 h 738.2 c 0,0 249.7,0 249.7,249.7 v 519.1 c 0,0 0,249.7 -249.7,249.7 h -738.2 v 0"
             style="fill:#416170;fill-opacity:1;fill-rule:nonzero;stroke:none"
             id="path252" />
        </g>
        <g
           id="g254"
           transform="scale(1.55224)">
          <path
             d="m 16300,13128.6 c -45.4,196.8 -107.2,342.2 -190.9,369.3 -248.7,80.3 -528.3,98.7 -468.9,275.1 37.5,111.5 -267.5,111.5 -230,0 59.3,-176.4 -189.5,-194.8 -438.2,-275.1 -107.9,-34.9 -181.8,-177.5 -232.4,-368.2 241.5,-87.1 505.3,-135.1 781.7,-135.1 275.3,0 538.1,47.6 778.7,134 v 0"
             style="fill:#fcd9c1;fill-opacity:1;fill-rule:nonzero;stroke:none"
             id="path256" />
        </g>
        <g
           id="g258"
           transform="scale(1.44762)">
          <path
             d="m 16236.2,15412.5 c 50.1,20.3 63.8,103.1 30.7,185.1 -33.1,82 -100.6,132.1 -150.7,111.8 -50,-20.1 -63.7,-103 -30.6,-185 33.1,-82 100.6,-132.1 150.6,-111.9 v 0"
             style="fill:#f4c8b3;fill-opacity:1;fill-rule:nonzero;stroke:none"
             id="path260" />
        </g>
        <g
           id="g262"
           transform="scale(1.53025)">
          <path
             d="m 16126.2,14580.3 c -47.4,19.1 -60.4,97.5 -29,175.1 31.3,77.5 95.1,124.9 142.4,105.8 47.4,-19.1 60.4,-97.5 29,-175.1 -31.3,-77.6 -95.1,-125 -142.4,-105.8 v 0"
             style="fill:#f4c8b3;fill-opacity:1;fill-rule:nonzero;stroke:none"
             id="path264" />
        </g>
        <g
           id="g266"
           transform="scale(1.49564)">
          <path
             d="m 15917.4,14707.3 47.8,-693.6 h 287 l 47.8,693.6 h -382.6 v 0"
             style="fill:#fcd9c1;fill-opacity:1;fill-rule:nonzero;stroke:none"
             id="path268" />
        </g>
        <g
           id="g270">
          <g
             id="g272"
             clip-path="url(#clipPath276)">
            <g
               id="g278"
               transform="scale(1.49564)">
              <path
                 d="m 16108.7,14302.5 c 228.9,0 478.3,316.4 478.3,706.8 0,390.4 140.4,706.9 -478.3,706.9 -618.7,0 -478.4,-316.5 -478.4,-706.9 0,-390.4 249.4,-706.8 478.4,-706.8 v 0"
                 style="fill:#f4c8b3;fill-opacity:1;fill-rule:nonzero;stroke:none"
                 id="path280" />
            </g>
          </g>
        </g>
        <g
           id="g282"
           transform="scale(1.53486)">
          <path
             d="m 15697.1,14009.2 c 223.1,0 466.1,308.3 466.1,688.7 0,380.4 136.8,688.8 -466.1,688.8 -602.8,0 -466.1,-308.4 -466.1,-688.8 0,-380.4 243,-688.7 466.1,-688.7 v 0"
             style="fill:#fcd9c1;fill-opacity:1;fill-rule:nonzero;stroke:none"
             id="path284" />
        </g>
        <g
           id="g286"
           transform="scale(1.55224)">
          <path
             d="m 16300,13128.6 c -45.4,196.8 -107.2,342.2 -190.9,369.3 -95.1,30.7 -194.7,52.3 -278.1,77.3 -63.5,-80.6 -179.1,-134.6 -311.2,-134.6 -127.8,0 -240.1,50.6 -304.7,126.8 -72.8,-21.8 -157.9,-42 -243.1,-69.5 -107.9,-34.9 -181.8,-177.5 -232.4,-368.2 241.5,-87.1 505.3,-135.1 781.7,-135.1 275.3,0 538.1,47.6 778.7,134 v 0"
             style="fill:#fc9493;fill-opacity:1;fill-rule:nonzero;stroke:none"
             id="path288" />
        </g>
        <g
           id="g290"
           transform="scale(1.53627)">
          <path
             d="m 16300,14893.5 c 0,618 -375,797.2 -614.1,797.2 -239.1,0 -623.6,-179.2 -623.6,-797.2 0,-287.1 56.2,-212.2 56.2,-212.2 l 468.1,163.9 94.6,390.6 94.5,-390.6 468.1,-163.9 c 0,0 56.2,-74.9 56.2,212.2 v 0"
             style="fill:#416170;fill-opacity:1;fill-rule:nonzero;stroke:none"
             id="path292" />
        </g>
        <g
           id="g294"
           transform="scale(1.49598)">
          <path
             d="m 16297.7,14661.4 c -6.5,9 -33.3,-30.9 -129.5,9 -26.7,11 -56.8,-17.4 -64.7,-25.5 -7.8,8.1 -38,36.5 -64.7,25.5 -96.2,-39.9 -123,0 -129.4,-9 -2.3,-3.3 75.8,-111.1 194.1,-111.1 118.4,0 196.5,107.8 194.2,111.1 v 0"
             style="fill:#fc9493;fill-opacity:1;fill-rule:nonzero;stroke:none"
             id="path296" />
        </g>
        <g
           id="g298"
           transform="scale(1.50755)">
          <path
             d="m 16212.5,14972.1 c -50.3,-3.5 -98.1,-39.4 -102.4,7.1 -5,53.6 44.8,89 95,94.2 39.1,4 94.9,-36.8 93,-83.5 -2,-52 -35.2,-14.3 -85.6,-17.8 v 0"
             style="fill:#284354;fill-opacity:1;fill-rule:nonzero;stroke:none"
             id="path300" />
        </g>
        <g
           id="g302"
           transform="scale(1.46636)">
          <path
             d="m 16189.7,15392.6 c 51.7,-3.6 100.8,-40.5 105.3,7.3 5,55.1 -46.2,91.5 -97.8,96.8 -40.1,4.1 -97.5,-37.8 -95.6,-85.8 2.1,-53.5 36.3,-14.7 88.1,-18.3 v 0"
             style="fill:#284354;fill-opacity:1;fill-rule:nonzero;stroke:none"
             id="path304" />
        </g>
        <g
           id="g306"
           transform="scale(1.44267)">
          <path
             d="m 9518.91,14942.2 v 805.7 c 0,0 0,552.1 496.89,552.1 h 4158.4 33.2 1048.9 l -553.1,-510.2 c 0.7,-13.6 1.1,-27.6 1.1,-41.9 v -805.7 c 0,0 0,-552.1 -496.9,-552.1 h -4191.6 c 0,0 -496.89,0 -496.89,552.1 v 0"
             style="fill:#b2ce5b;fill-opacity:1;fill-rule:nonzero;stroke:none"
             id="path308" />
        </g>
        <g
           id="g310"
           transform="scale(1.3948)">
          <path
             d="m 10340.2,16300 v -126.9 h 4406.1 v 126.9 h -4406.1 v 0"
             style="fill:#ffffff;fill-opacity:1;fill-rule:nonzero;stroke:none"
             id="path312" />
        </g>
        <g
           id="g314"
           transform="scale(1.36314)">
          <path
             d="m 10580.4,16300 v -129.8 h 3685 v 129.8 h -3685 v 0"
             style="fill:#ffffff;fill-opacity:1;fill-rule:nonzero;stroke:none"
             id="path316" />
        </g>
        <g
           id="g318"
           transform="scale(1.57996)">
          <path
             d="m 15247.5,7341.44 c 581.3,0 1052.5,471.21 1052.5,1052.49 0,581.28 -471.2,1052.49 -1052.5,1052.49 -581.3,0 -1052.5,-471.21 -1052.5,-1052.49 0,-581.28 471.2,-1052.49 1052.5,-1052.49 v 0"
             style="fill:#ededed;fill-opacity:1;fill-rule:nonzero;stroke:none"
             id="path320" />
        </g>
        <g
           id="g322"
           transform="scale(1.53626)">
          <path
             d="m 15312.1,9307.65 c 0,0 -249.6,0 -249.6,-249.7 v -519.18 c 0,0 0,-249.63 249.6,-249.63 h 738.2 c 0,0 249.7,0 249.7,249.63 v 519.18 c 0,0 0,249.7 -249.7,249.7 h -738.2 v 0"
             style="fill:#416170;fill-opacity:1;fill-rule:nonzero;stroke:none"
             id="path324" />
        </g>
        <g
           id="g326"
           transform="scale(1.55224)">
          <path
             d="m 16300,7410.46 c -45.4,196.81 -107.2,342.28 -190.9,369.27 -248.7,80.34 -528.3,98.82 -468.9,275.22 37.5,111.38 -267.5,111.38 -230,0 59.3,-176.4 -189.5,-194.88 -438.2,-275.22 -107.9,-34.86 -181.8,-177.42 -232.4,-368.11 241.5,-87.11 505.3,-135.16 781.7,-135.16 275.3,0 538.1,47.61 778.7,134 v 0"
             style="fill:#fcd9c1;fill-opacity:1;fill-rule:nonzero;stroke:none"
             id="path328" />
        </g>
        <g
           id="g330"
           transform="scale(1.44762)">
          <path
             d="m 16236.2,9281.24 c 50.1,20.17 63.8,103.06 30.7,185.06 -33.1,81.99 -100.6,132.08 -150.7,111.84 -50,-20.24 -63.7,-103.07 -30.6,-185.06 33.1,-82 100.6,-132.09 150.6,-111.84 v 0"
             style="fill:#f4c8b3;fill-opacity:1;fill-rule:nonzero;stroke:none"
             id="path332" />
        </g>
        <g
           id="g334"
           transform="scale(1.53025)">
          <path
             d="m 16126.2,8780.06 c -47.4,19.08 -60.4,97.5 -29,175.07 31.3,77.57 95.1,124.95 142.4,105.8 47.4,-19.15 60.4,-97.5 29,-175.07 -31.3,-77.57 -95.1,-124.95 -142.4,-105.8 v 0"
             style="fill:#f4c8b3;fill-opacity:1;fill-rule:nonzero;stroke:none"
             id="path336" />
        </g>
        <g
           id="g338"
           transform="scale(1.49564)">
          <path
             d="m 15917.4,8772.88 47.8,-693.62 h 287 l 47.8,693.62 h -382.6 v 0"
             style="fill:#fcd9c1;fill-opacity:1;fill-rule:nonzero;stroke:none"
             id="path340" />
        </g>
        <g
           id="g342">
          <g
             id="g344"
             clip-path="url(#clipPath348)">
            <g
               id="g350"
               transform="scale(1.49564)">
              <path
                 d="m 16108.7,8368.03 c 228.9,0 478.3,316.45 478.3,706.79 0,390.4 140.4,706.85 -478.3,706.85 -618.7,0 -478.4,-316.45 -478.4,-706.85 0,-390.34 249.4,-706.79 478.4,-706.79 v 0"
                 style="fill:#f4c8b3;fill-opacity:1;fill-rule:nonzero;stroke:none"
                 id="path352" />
            </g>
          </g>
        </g>
        <g
           id="g354"
           transform="scale(1.53486)">
          <path
             d="m 15697.1,8226.29 c 223.1,0 466.1,308.37 466.1,688.8 0,380.36 136.8,688.72 -466.1,688.72 -602.8,0 -466.1,-308.36 -466.1,-688.72 0,-380.43 243,-688.8 466.1,-688.8 v 0"
             style="fill:#fcd9c1;fill-opacity:1;fill-rule:nonzero;stroke:none"
             id="path356" />
        </g>
        <g
           id="g358"
           transform="scale(1.55224)">
          <path
             d="m 16300,7410.46 c -45.4,196.81 -107.2,342.28 -190.9,369.27 -95.1,30.73 -194.7,52.37 -278.1,77.31 -63.5,-80.6 -179.1,-134.52 -311.2,-134.52 -127.8,0 -240.1,50.51 -304.7,126.79 -72.8,-21.84 -157.9,-42.07 -243.1,-69.58 -107.9,-34.86 -181.8,-177.42 -232.4,-368.11 241.5,-87.11 505.3,-135.16 781.7,-135.16 275.3,0 538.1,47.61 778.7,134 v 0"
             style="fill:#fc9493;fill-opacity:1;fill-rule:nonzero;stroke:none"
             id="path360" />
        </g>
        <g
           id="g362"
           transform="scale(1.53627)">
          <path
             d="m 16300,9115.98 c 0,617.99 -375,797.25 -614.1,797.25 -239.1,0 -623.6,-179.26 -623.6,-797.25 0,-287.13 56.2,-212.21 56.2,-212.21 l 468.1,163.91 94.6,390.62 94.5,-390.62 468.1,-163.91 c 0,0 56.2,-74.92 56.2,212.21 v 0"
             style="fill:#416170;fill-opacity:1;fill-rule:nonzero;stroke:none"
             id="path364" />
        </g>
        <g
           id="g366"
           transform="scale(1.49598)">
          <path
             d="m 16297.7,8728.22 c -6.5,8.96 -33.3,-30.88 -129.5,8.96 -26.7,11.09 -56.8,-17.32 -64.7,-25.4 -7.8,8.08 -38,36.49 -64.7,25.4 -96.2,-39.84 -123,0 -129.4,-8.96 -2.3,-3.21 75.8,-111.03 194.1,-111.03 118.4,0 196.5,107.82 194.2,111.03 v 0"
             style="fill:#fc9493;fill-opacity:1;fill-rule:nonzero;stroke:none"
             id="path368" />
        </g>
        <g
           id="g370"
           transform="scale(1.50755)">
          <path
             d="m 16212.5,9084.5 c -50.3,-3.52 -98.1,-39.4 -102.4,7.03 -5,53.6 44.8,89.02 95,94.19 39.1,4.05 94.9,-36.81 93,-83.44 -2,-52.01 -35.2,-14.26 -85.6,-17.78 v 0"
             style="fill:#284354;fill-opacity:1;fill-rule:nonzero;stroke:none"
             id="path372" />
        </g>
        <g
           id="g374"
           transform="scale(1.46636)">
          <path
             d="m 16189.7,9339.65 c 51.7,-3.62 100.8,-40.51 105.3,7.23 5,55.1 -46.2,91.51 -97.8,96.83 -40.1,4.16 -97.5,-37.84 -95.6,-85.79 2.1,-53.46 36.3,-14.66 88.1,-18.27 v 0"
             style="fill:#284354;fill-opacity:1;fill-rule:nonzero;stroke:none"
             id="path376" />
        </g>
        <g
           id="g378"
           transform="scale(1.3503)">
          <path
             d="M 10170.1,9391.17 V 10252 c 0,0 0,589.8 530.8,589.8 h 4443 35.5 1120.6 l -591,-545.1 c 0.8,-14.5 1.2,-29.4 1.2,-44.7 v -860.83 c 0,0 0,-589.8 -530.8,-589.8 h -4478.5 c 0,0 -530.8,0 -530.8,589.8 v 0"
             style="fill:#b2ce5b;fill-opacity:1;fill-rule:nonzero;stroke:none"
             id="path380" />
        </g>
        <g
           id="g382"
           transform="scale(1.26185)">
          <path
             d="M 11429.6,10989.2 V 10849 H 16300 v 140.2 h -4870.4 v 0"
             style="fill:#ffffff;fill-opacity:1;fill-rule:nonzero;stroke:none"
             id="path384" />
        </g>
        <g
           id="g386"
           transform="scale(1.26185)">
          <path
             d="m 11429.6,10580.2 v -140.3 H 16300 v 140.3 h -4870.4 v 0"
             style="fill:#ffffff;fill-opacity:1;fill-rule:nonzero;stroke:none"
             id="path388" />
        </g>
        <g
           id="g390"
           transform="scale(1.00864)">
          <path
             d="m 14298.9,12724.4 v -175.5 H 16300 v 175.5 h -2001.1 v 0"
             style="fill:#ffffff;fill-opacity:1;fill-rule:nonzero;stroke:none"
             id="path392" />
        </g>
        <g
           id="g394"
           transform="scale(2.00471)">
          <path
             d="m 12017,14641 c 458.1,0 829.5,371.4 829.5,829.5 0,458.1 -371.4,829.5 -829.5,829.5 -458.1,0 -829.5,-371.4 -829.5,-829.5 0,-458.1 371.4,-829.5 829.5,-829.5 v 0"
             style="fill:#ededed;fill-opacity:1;fill-rule:nonzero;stroke:none"
             id="path396" />
        </g>
        <g
           id="g398"
           transform="scale(1.9663)">
          <path
             d="m 11963.3,16300 c 0,0 -195.1,0 -195.1,-195.1 v -405.6 c 0,0 0,-195.1 195.1,-195.1 h 576.7 c 0,0 195.1,0 195.1,195.1 v 405.6 c 0,0 0,195.1 -195.1,195.1 h -576.7 v 0"
             style="fill:#416170;fill-opacity:1;fill-rule:nonzero;stroke:none"
             id="path400" />
        </g>
        <g
           id="g402"
           transform="scale(1.86674)">
          <path
             d="m 13553.9,15671.4 c -37.8,163.7 -89.2,284.6 -158.8,307.1 -206.8,66.8 -439.3,82.2 -389.9,228.9 31.2,92.6 -222.4,92.6 -191.2,0 49.3,-146.7 -157.6,-162.1 -364.4,-228.9 -89.7,-29 -151.2,-147.5 -193.3,-306.1 200.9,-72.4 420.2,-112.4 650.1,-112.4 228.9,0 447.4,39.6 647.5,111.4 v 0"
             style="fill:#fcd9c1;fill-opacity:1;fill-rule:nonzero;stroke:none"
             id="path404" />
        </g>
        <g
           id="g406"
           transform="scale(1.9415)">
          <path
             d="m 12106,16063.5 c 37.4,15.1 47.6,76.9 22.9,138 -24.7,61.2 -75,98.5 -112.3,83.4 -37.4,-15.1 -47.6,-76.8 -22.9,-138 24.7,-61.1 75,-98.5 112.3,-83.4 v 0"
             style="fill:#f4c8b3;fill-opacity:1;fill-rule:nonzero;stroke:none"
             id="path408" />
        </g>
        <g
           id="g410"
           transform="scale(1.9415)">
          <path
             d="m 12710.3,16063.5 c -37.3,15.1 -47.6,76.9 -22.9,138 24.7,61.2 75,98.5 112.3,83.4 37.4,-15.1 47.6,-76.8 22.9,-138 -24.7,-61.1 -75,-98.5 -112.3,-83.4 v 0"
             style="fill:#f4c8b3;fill-opacity:1;fill-rule:nonzero;stroke:none"
             id="path412" />
        </g>
        <g
           id="g414"
           transform="scale(1.89403)">
          <path
             d="m 12569.3,16300 37.8,-547.7 h 226.6 l 37.8,547.7 h -302.2 v 0"
             style="fill:#fcd9c1;fill-opacity:1;fill-rule:nonzero;stroke:none"
             id="path416" />
        </g>
        <g
           id="g418">
          <g
             id="g420"
             clip-path="url(#clipPath424)">
            <g
               id="g426"
               transform="scale(1.89405)">
              <path
                 d="m 12720.3,15980.2 c 180.8,0 377.7,249.9 377.7,558.1 0,308.3 110.8,558.2 -377.7,558.2 -488.5,0 -377.7,-249.9 -377.7,-558.2 0,-308.2 196.9,-558.1 377.7,-558.1 v 0"
                 style="fill:#f4c8b3;fill-opacity:1;fill-rule:nonzero;stroke:none"
                 id="path428" />
            </g>
          </g>
        </g>
        <g
           id="g430"
           transform="scale(1.99339)">
          <path
             d="m 12086.4,15239.3 c 171.8,0 358.9,237.5 358.9,530.4 0,292.9 105.3,530.3 -358.9,530.3 -464.2,0 -358.9,-237.4 -358.9,-530.3 0,-292.9 187.1,-530.4 358.9,-530.4 v 0"
             style="fill:#fcd9c1;fill-opacity:1;fill-rule:nonzero;stroke:none"
             id="path432" />
        </g>
        <g
           id="g434"
           transform="scale(1.83728)">
          <path
             d="m 13771.2,15922.7 c -38.4,166.3 -90.6,289.2 -161.4,312 -80.2,25.9 -164.4,44.3 -234.9,65.3 -53.6,-68.1 -151.3,-113.6 -262.9,-113.6 -108,0 -202.8,42.6 -257.5,107.1 -61.5,-18.5 -133.4,-35.6 -205.3,-58.8 -91.1,-29.4 -153.6,-149.9 -196.4,-311 204.1,-73.6 427,-114.2 660.5,-114.2 232.6,0 454.6,40.2 657.9,113.2 v 0"
             style="fill:#fc9493;fill-opacity:1;fill-rule:nonzero;stroke:none"
             id="path436" />
        </g>
        <g
           id="g438"
           transform="scale(2.02338)">
          <path
             d="m 12375.9,15694.7 c 0,469.2 -284.7,605.3 -466.2,605.3 -181.5,0 -473.5,-136.1 -473.5,-605.3 0,-218 42.7,-161.1 42.7,-161.1 l 355.4,124.4 71.8,296.6 71.7,-296.6 355.5,-124.4 c 0,0 42.6,-56.9 42.6,161.1 v 0"
             style="fill:#416170;fill-opacity:1;fill-rule:nonzero;stroke:none"
             id="path440" />
        </g>
        <g
           id="g442"
           transform="scale(1.89195)">
          <path
             d="m 12886.6,16284.2 c -5.1,7.1 -26.2,-24.5 -102.4,7.1 -21,8.7 -44.9,-13.8 -51.1,-20.2 -6.2,6.4 -30,28.9 -51.1,20.2 -76.1,-31.6 -97.3,0 -102.4,-7.1 -1.8,-2.6 59.9,-87.8 153.5,-87.8 93.6,0 155.4,85.2 153.5,87.8 v 0"
             style="fill:#fc9493;fill-opacity:1;fill-rule:nonzero;stroke:none"
             id="path444" />
        </g>
        <g
           id="g446"
           transform="scale(1.939)">
          <path
             d="m 12605,16218.1 c -39.1,-2.7 -76.3,-30.6 -79.6,5.5 -3.9,41.7 34.8,69.2 73.9,73.3 30.4,3.1 73.7,-28.6 72.3,-64.9 -1.6,-40.5 -27.4,-11.1 -66.6,-13.9 v 0"
             style="fill:#284354;fill-opacity:1;fill-rule:nonzero;stroke:none"
             id="path448" />
        </g>
        <g
           id="g450"
           transform="scale(1.939)">
          <path
             d="m 12243.4,16218.1 c 39.1,-2.7 76.3,-30.6 79.6,5.5 3.8,41.7 -34.9,69.2 -73.9,73.3 -30.4,3.1 -73.7,-28.6 -72.4,-64.9 1.6,-40.5 27.5,-11.1 66.7,-13.9 v 0"
             style="fill:#284354;fill-opacity:1;fill-rule:nonzero;stroke:none"
             id="path452" />
        </g>
        <g
           id="g454"
           transform="scale(1.9872)">
          <path
             d="m 6910.57,15314.3 v 584.9 c 0,0 0,400.8 360.71,400.8 h 3018.92 24.1 761.5 l -401.5,-370.4 c 0.5,-9.9 0.8,-20 0.8,-30.4 v -584.9 c 0,0 0,-400.8 -360.8,-400.8 H 7271.28 c 0,0 -360.71,0 -360.71,400.8 v 0"
             style="fill:#b2ce5b;fill-opacity:1;fill-rule:nonzero;stroke:none"
             id="path456" />
        </g>
        <g
           id="g458"
           transform="scale(1.93933)">
          <path
             d="m 7436.84,16300 v -91.3 h 3168.96 v 91.3 H 7436.84 v 0"
             style="fill:#ffffff;fill-opacity:1;fill-rule:nonzero;stroke:none"
             id="path460" />
        </g>
        <g
           id="g462"
           transform="scale(1.90766)">
          <path
             d="m 7560.3,16300 v -92.8 h 3221.6 v 92.8 H 7560.3 v 0"
             style="fill:#ffffff;fill-opacity:1;fill-rule:nonzero;stroke:none"
             id="path464" />
        </g>
        <g
           id="g466"
           transform="scale(1.87599)">
          <path
             d="m 7687.93,16300 v -94.3 h 2662.47 v 94.3 H 7687.93 v 0"
             style="fill:#ffffff;fill-opacity:1;fill-rule:nonzero;stroke:none"
             id="path468" />
        </g>
        <g
           id="g470"
           transform="scale(1.42909)">
          <path
             d="m 12099.7,4317.29 c 0,0 4200.3,3331.77 2107.8,5021.72 C 12923.6,10376 12127,8318.43 10910.1,7780.33 8949.53,6913.48 8355.87,6278.88 8355.87,6278.88 v 6938.22 c -306,-86 -1665.76,-737.7 -2189.63,-1494.3 C 5642.37,10966.2 2939.36,3503.27 2775.92,3000.3 2698.02,2760.57 1652.11,349.452 1374.43,3.49873 H 9878.65 C 10552.6,578.339 11632,1927.59 12099.7,4317.29 v 0"
             style="fill:#e8ba9c;fill-opacity:1;fill-rule:nonzero;stroke:none"
             id="path472" />
        </g>
        <g
           id="g474"
           transform="scale(1.27539)">
          <path
             d="m 14043.9,8469.04 c 0,0 -1018.7,600.37 -549.5,1229.98 0,0 1041,1534.48 1930.8,742.68 110.7,-98.5 874.8,-612.52 283.1,-1457.44 l -197.9,-282.82 c 0,0 -591.7,-844.92 -1436.6,-253.26 l -29.9,20.86 v 0"
             style="fill:#efcfb9;fill-opacity:1;fill-rule:nonzero;stroke:none"
             id="path476" />
        </g>
      </g>
    </g>
  </g>
</svg>
